<svg height="512" viewBox="0 0 512 512" width="512" xmlns="http://www.w3.org/2000/svg" xmlns:xlink="http://www.w3.org/1999/xlink"><linearGradient id="a" gradientUnits="userSpaceOnUse" x1="9.36" x2="520.827" y1="502.64" y2="-8.827" data-name="New Gradient Swatch 1"><stop offset="0" stop-color="#003f8a"/><stop offset=".518" stop-color="#00d7df"/><stop offset="1" stop-color="#006df0"/></linearGradient><linearGradient id="b" x1="5.36" x2="516.827" xlink:href="#a" y1="498.64" y2="-12.827"/><linearGradient id="c" x1="-160.64" x2="350.827" xlink:href="#a" y1="332.64" y2="-178.827"/><linearGradient id="d" x1="-176.64" x2="334.827" xlink:href="#a" y1="316.64" y2="-194.827"/><linearGradient id="e" x1="-144.64" x2="366.827" xlink:href="#a" y1="348.64" y2="-162.827"/><linearGradient id="f" x1="-116.64" x2="394.827" xlink:href="#a" y1="376.64" y2="-134.827"/><linearGradient id="g" x1="-48.64" x2="462.827" xlink:href="#a" y1="444.64" y2="-66.827"/><linearGradient id="h" x1="-32.64" x2="478.827" xlink:href="#a" y1="460.64" y2="-50.827"/><linearGradient id="j" x1="19.36" x2="530.827" xlink:href="#a" y1="512.64" y2="1.173"/><linearGradient id="k" x1="75.36" x2="586.827" xlink:href="#a" y1="568.64" y2="57.173"/><linearGradient id="l" x1="127.36" x2="638.827" xlink:href="#a" y1="620.64" y2="109.173"/><linearGradient id="m" x1="-22.64" x2="488.827" xlink:href="#a" y1="470.64" y2="-40.827"/><linearGradient id="n" x1="97.36" x2="608.827" xlink:href="#a" y1="590.64" y2="79.173"/><linearGradient id="o" x1="37.36" x2="548.827" xlink:href="#a" y1="530.64" y2="19.173"/><linearGradient id="p" x1="81.36" x2="592.827" xlink:href="#a" y1="574.64" y2="63.173"/><g><path d="m420 8h-328a28.031 28.031 0 0 0 -28 28v440a28.031 28.031 0 0 0 28 28h328a28.031 28.031 0 0 0 28-28v-440a28.031 28.031 0 0 0 -28-28zm12 468a12.01 12.01 0 0 1 -12 12h-328a12.01 12.01 0 0 1 -12-12v-404h352zm0-420h-352v-20a12.01 12.01 0 0 1 12-12h328a12.01 12.01 0 0 1 12 12z" fill="url(#a)"/><path d="m152 328h32v32a8 8 0 0 0 16 0v-32h8a8 8 0 0 0 0-16h-8v-48a8 8 0 0 0 -14.51-4.65l-40 56a8 8 0 0 0 6.51 12.65zm32-39.04v23.04h-16.45z" fill="url(#b)"/><path d="m128 48h8a8 8 0 0 0 0-16h-8a8 8 0 0 0 0 16z" fill="url(#c)"/><path d="m96 48h8a8 8 0 0 0 0-16h-8a8 8 0 0 0 0 16z" fill="url(#d)"/><path d="m160 48h8a8 8 0 0 0 0-16h-8a8 8 0 0 0 0 16z" fill="url(#e)"/><path d="m104 168h56a8 8 0 0 0 8-8v-64a8 8 0 0 0 -8-8h-56a8 8 0 0 0 -8 8v64a8 8 0 0 0 8 8zm8-64h40v48h-40z" fill="url(#f)"/><path d="m408 88h-216a8 8 0 0 0 0 16h216a8 8 0 0 0 0-16z" fill="url(#g)"/><path d="m408 120h-216a8 8 0 0 0 0 16h216a8 8 0 0 0 0-16z" fill="url(#h)"/><path d="m344 168a8 8 0 0 0 0-16h-152a8 8 0 0 0 0 16z" fill="url(#h)"/><path d="m376 168a8 8 0 0 0 0-16h-8a8 8 0 0 0 0 16z" fill="url(#j)"/><path d="m256 456h-152a8 8 0 0 0 0 16h152a8 8 0 0 0 0-16z" fill="url(#k)"/><path d="m288 456h-8a8 8 0 0 0 0 16h8a8 8 0 0 0 0-16z" fill="url(#l)"/><path d="m408 184h-304a8 8 0 0 0 0 16h304a8 8 0 0 0 0-16z" fill="url(#m)"/><path d="m408 424h-304a8 8 0 0 0 0 16h304a8 8 0 0 0 0-16z" fill="url(#n)"/><path d="m408 216h-304a8 8 0 0 0 -8 8v176a8 8 0 0 0 8 8h304a8 8 0 0 0 8-8v-176a8 8 0 0 0 -8-8zm-8 176h-288v-160h288z" fill="url(#o)"/><path d="m360 312h-8v-48a8 8 0 0 0 -14.51-4.65l-40 56a8 8 0 0 0 6.51 12.65h32v32a8 8 0 0 0 16 0v-32h8a8 8 0 0 0 0-16zm-24 0h-16.45l16.45-23.04z" fill="url(#p)"/><path d="m232 368h48a8 8 0 0 0 8-8v-96a8 8 0 0 0 -8-8h-48a8 8 0 0 0 -8 8v96a8 8 0 0 0 8 8zm8-96h32v80h-32z" fill="url(#o)"/></g></svg>